# xmcd
#
# Track frame offsets:
#  150
#  11756
#  21481
#  32076
#  42114
#  53295
#  69254
#  80783
#  90347
#  113851
#  126487
#  139695
#
# Disc length: 1999 seconds
#
# Revision: 0
# Processed by: cddbd v1.5.1PL0 Copyright (c) Steve Scherf et al.
# Submitted via: Collectorz.com Music Collector 6.9
#
DISCID=9807cd0c
DTITLE=Various Artist - Tumbling Tumbleweeds  (Record 5 of 7)
DYEAR=1900
DGENRE=Country
TTITLE0=Reeves, Jim - Mexicali Rose
TTITLE1=The Sons Of The Pioneers - A Gay Ranchero
TTITLE2=Bob Wills and His Texas Playboys - South of The Border (Down Mexico Way)
TTITLE3=The Sons Of The Pioneers - My Adobe Hacienda
TTITLE4=Foley, Red - Don't Let The Stars Get In Your Eyes
TTITLE5=Arnold, Eddy - The Ballad of Jesse James
TTITLE6=Williams, Tex - River of No Return
TTITLE7=Merle Travis - John Henry
TTITLE8=Reeves, Jim - The Shifting, Whispering Sands
TTITLE9=The Sons Of The Pioneers - The Strawberry Roan
TTITLE10=Rodgers, Jimmie - Frankie and Johnny
TTITLE11=Ritter, Tex - Billy the Kid
EXTD=
EXTT0=
EXTT1=
EXTT2=
EXTT3=
EXTT4=
EXTT5=
EXTT6=
EXTT7=
EXTT8=
EXTT9=
EXTT10=
EXTT11=
PLAYORDER=
